<?xml version="1.0" encoding="iso-8859-1"?>
<!-- Generator: Adobe Illustrator 19.0.0, SVG Export Plug-In . SVG Version: 6.00 Build 0)  -->
<svg version="1.1" id="Layer_1" xmlns="http://www.w3.org/2000/svg" xmlns:xlink="http://www.w3.org/1999/xlink" x="0px" y="0px"
	 viewBox="0 0 512 512" style="enable-background:new 0 0 512 512;" xml:space="preserve">
<path style="fill:#32BEA6;" d="M222.752,512v-59.568c-42.048-1.888-82.816-13.184-106.688-26.976l18.848-73.424
	c26.368,14.416,63.36,27.584,104.176,27.584c35.76,0,60.24-13.792,60.24-38.88c0-23.856-20.08-38.928-66.528-54.624
	c-67.136-22.576-112.96-53.952-112.96-114.8c0-55.232,38.928-98.512,106.064-111.696V0h61.472v55.232
	c42.048,1.888,70.304,10.624,90.992,20.688l-18.192,70.912c-16.304-6.896-45.168-21.36-90.384-21.36
	c-40.768,0-53.952,17.568-53.952,35.152c0,20.688,21.968,33.872,75.312,53.952c74.64,26.368,104.784,60.848,104.784,117.36
	c0,55.84-39.552,103.52-111.696,116.08V512H222.752z"/>
<g>
</g>
<g>
</g>
<g>
</g>
<g>
</g>
<g>
</g>
<g>
</g>
<g>
</g>
<g>
</g>
<g>
</g>
<g>
</g>
<g>
</g>
<g>
</g>
<g>
</g>
<g>
</g>
<g>
</g>
</svg>
