<?xml version="1.0" ?><!DOCTYPE svg  PUBLIC '-//W3C//DTD SVG 1.1//EN'  'http://www.w3.org/Graphics/SVG/1.1/DTD/svg11.dtd'><svg height="512px" style="enable-background:new 0 0 512 512;" version="1.1" viewBox="0 0 512 512" width="512px" xml:space="preserve" xmlns="http://www.w3.org/2000/svg" xmlns:xlink="http://www.w3.org/1999/xlink"><g id="_x34_8_x2C__Admin"><g><circle cx="442" cy="63.5" r="30" style="fill:#FFFFFF;"/><path d="M64.5,433.5c12.43,0,22.5,10.07,22.5,22.5s-10.07,22.5-22.5,22.5C52.07,478.5,42,468.43,42,456    S52.07,433.5,64.5,433.5z" style="fill:#FFFFFF;"/><path d="M297,179.01c26.66,15.57,44.65,44.51,44.65,77.54c0,32.97-17.99,61.891-44.65,77.45v70.9v63.6h-90    v-63.6v-70.92c-26.67-15.561-44.65-44.471-44.65-77.431c0-33.02,17.98-61.95,44.65-77.52v64.47l45,35l45-35V179.01z" style="fill:#FFFFFF;"/><path d="M464,224.08v64.85l-61.89,6.46c-3.591,14.17-9.24,27.53-16.511,39.82l39.291,48.26l-45.92,45.92    l-48.26-39.279c-10.5,6.21-21.801,11.22-33.711,14.79V334c26.66-15.56,44.65-44.48,44.65-77.45c0-33.03-17.99-61.97-44.65-77.54    v64.49l-45,35l-45-35v-64.47c-26.67,15.57-44.65,44.5-44.65,77.52c0,32.96,17.98,61.87,44.65,77.431v70.92    c-11.86-3.57-23.21-8.591-33.71-14.79l-48.25,39.279L79.2,383.47l39.2-48.26c-7.27-12.29-12.92-25.65-16.51-39.82L40,288.93    v-64.85l61.89-6.46c3.59-14.08,9.24-27.54,16.51-39.83l-39.2-48.25l45.84-45.84l48.25,39.2c12.29-7.26,25.75-12.92,39.83-16.5    l6.46-61.89h64.85l6.451,61.89c14.18,3.58,27.539,9.24,39.83,16.5l48.26-39.2l45.92,45.84L385.6,177.79    c7.271,12.29,12.92,25.75,16.511,39.83L464,224.08z" style="fill:#9BC9FF;"/><circle cx="454.5" cy="361" r="7.5" style="fill:#1E81CE;"/><circle cx="449.5" cy="156" r="7.5" style="fill:#1E81CE;"/><circle cx="389.5" cy="466" r="7.5" style="fill:#1E81CE;"/><circle cx="329.5" cy="38.5" r="7.5" style="fill:#1E81CE;"/><circle cx="149.5" cy="466" r="7.5" style="fill:#1E81CE;"/><circle cx="119.5" cy="38.5" r="7.5" style="fill:#1E81CE;"/><circle cx="54.5" cy="126" r="7.5" style="fill:#1E81CE;"/><circle cx="49.5" cy="361" r="7.5" style="fill:#1E81CE;"/><path d="M125.041,434.39c-1.287,0-2.568-0.494-3.54-1.468l-45.84-45.92    c-1.809-1.812-1.957-4.697-0.342-6.685l37.031-45.589c-6.238-11.083-11.071-22.733-14.407-34.724l-58.462-6.103    C36.934,293.637,35,291.49,35,288.93v-64.85c0-2.561,1.934-4.707,4.481-4.973l58.467-6.103    c3.364-12.046,8.196-23.699,14.402-34.732l-37.031-45.58c-1.615-1.989-1.466-4.876,0.345-6.688l45.84-45.84    c1.812-1.811,4.7-1.96,6.688-0.345l45.581,37.031c11.06-6.214,22.714-11.044,34.73-14.395l6.103-58.465    c0.266-2.547,2.413-4.481,4.973-4.481h64.85c2.561,0,4.708,1.935,4.974,4.481l6.093,58.459c11.965,3.321,23.619,8.153,34.731,14.4    l45.591-37.031c1.985-1.614,4.871-1.468,6.684,0.342l45.92,45.84c1.816,1.813,1.966,4.706,0.346,6.696l-37.115,45.579    c6.204,11.03,11.035,22.683,14.4,34.729l58.467,6.103c2.547,0.266,4.48,2.413,4.48,4.973v64.85c0,2.561-1.934,4.707-4.48,4.973    l-58.463,6.103c-3.336,11.989-8.168,23.64-14.404,34.72l37.115,45.588c1.619,1.989,1.471,4.88-0.342,6.692l-45.92,45.92    c-1.813,1.813-4.704,1.963-6.691,0.343l-45.59-37.105c-10.117,5.688-20.795,10.231-31.789,13.527    c-2.645,0.792-5.432-0.708-6.225-3.354c-0.793-2.645,0.708-5.432,3.354-6.225c11.322-3.395,22.291-8.207,32.601-14.305    c1.804-1.066,4.079-0.896,5.702,0.426l44.759,36.431l39.536-39.537l-36.439-44.759c-1.322-1.624-1.492-3.9-0.426-5.703    c7.209-12.188,12.582-25.142,15.967-38.503c0.515-2.031,2.242-3.526,4.328-3.744L459,284.425v-55.839l-57.408-5.992    c-2.082-0.217-3.809-1.709-4.326-3.738c-3.428-13.441-8.801-26.401-15.969-38.52c-1.066-1.803-0.896-4.079,0.426-5.703    l36.438-44.746l-39.534-39.465l-44.763,36.359c-1.623,1.318-3.895,1.487-5.695,0.424c-12.23-7.225-25.188-12.593-38.512-15.958    c-2.034-0.513-3.531-2.243-3.749-4.33l-5.983-57.408h-55.838l-5.992,57.409c-0.218,2.083-1.711,3.811-3.741,4.327    c-13.4,3.407-26.36,8.777-38.519,15.959c-1.8,1.064-4.072,0.894-5.696-0.424l-44.75-36.356l-39.463,39.463l36.357,44.75    c1.319,1.624,1.488,3.897,0.423,5.699c-7.17,12.12-12.542,25.08-15.969,38.52c-0.518,2.029-2.244,3.521-4.326,3.738L45,228.585    v55.839l57.409,5.992c2.085,0.218,3.813,1.713,4.328,3.745c3.385,13.359,8.757,26.313,15.967,38.502    c1.065,1.801,0.896,4.074-0.423,5.698l-36.36,44.764l39.466,39.534l44.746-36.428c1.624-1.321,3.897-1.49,5.699-0.428    c10.299,6.08,21.271,10.895,32.609,14.308c2.644,0.796,4.143,3.585,3.346,6.229c-0.796,2.644-3.586,4.142-6.229,3.347    c-11.001-3.313-21.677-7.857-31.781-13.528l-45.581,37.107C127.273,434.019,126.155,434.39,125.041,434.39z" style="fill:#1E81CE;"/><path d="M297,473.5h-90c-2.761,0-5-2.238-5-5V336.801c-27.615-17.267-44.65-47.75-44.65-80.251    c0-33.508,18.059-64.866,47.129-81.838c1.546-0.903,3.457-0.91,5.01-0.018c1.553,0.891,2.511,2.545,2.511,4.336v62.025l40,31.111    l40-31.111V179.01c0-1.791,0.957-3.445,2.511-4.336c1.553-0.892,3.464-0.885,5.011,0.019    c29.07,16.978,47.129,48.344,47.129,81.857c0,32.508-17.035,62.999-44.65,80.27V468.5C302,471.262,299.762,473.5,297,473.5z     M212,463.5h80V334c0-1.778,0.944-3.422,2.479-4.318c26.013-15.182,42.171-43.204,42.171-73.132    c0-26.967-13.082-52.384-34.65-68.275V243.5c0,1.543-0.713,3-1.93,3.947l-45,35c-1.806,1.404-4.334,1.404-6.14,0l-45-35    c-1.218-0.947-1.93-2.404-1.93-3.947v-55.207c-21.568,15.885-34.65,41.295-34.65,68.257c0,29.921,16.158,57.936,42.169,73.112    c1.536,0.896,2.48,2.54,2.48,4.318V463.5z" style="fill:#1E81CE;"/><path d="M442,98.5c-19.299,0-35-15.701-35-35s15.701-35,35-35s35,15.701,35,35S461.299,98.5,442,98.5z     M442,38.5c-13.785,0-25,11.215-25,25s11.215,25,25,25s25-11.215,25-25S455.785,38.5,442,38.5z" style="fill:#1E81CE;"/><path d="M64.5,483.5C49.336,483.5,37,471.163,37,456s12.336-27.5,27.5-27.5S92,440.837,92,456    S79.664,483.5,64.5,483.5z M64.5,438.5c-9.649,0-17.5,7.851-17.5,17.5s7.851,17.5,17.5,17.5S82,465.649,82,456    S74.149,438.5,64.5,438.5z" style="fill:#1E81CE;"/></g></g><g id="Layer_1"/></svg>